<svg width="64" height="50" viewBox="0 0 64 50" fill="none" xmlns="http://www.w3.org/2000/svg">
<path d="M63.4371 10.8757V39.9955C63.4372 42.3497 62.5098 44.615 60.8448 46.3279C59.1797 48.0408 56.9027 49.0717 54.4798 49.2098L53.9215 49.2252H9.51556C7.08842 49.2254 4.75297 48.3259 2.98706 46.7108C1.22114 45.0957 0.158252 42.8872 0.0158596 40.537L0 39.9955V10.8757L29.9582 30.2489L30.3261 30.452C30.7597 30.6575 31.2359 30.7643 31.7185 30.7643C32.2011 30.7643 32.6774 30.6575 33.111 30.452L33.4789 30.2489L63.4371 10.8757Z" fill="#FF1044"/>
<path d="M53.9212 0C57.3468 0 60.3505 1.75365 62.0253 4.39027L31.7182 23.9881L1.41113 4.39027C2.20661 3.13756 3.29931 2.08746 4.59812 1.32751C5.89694 0.567562 7.36423 0.119793 8.87768 0.0215359L9.51522 0H53.9212Z" fill="#FF1044"/>
</svg>
